<svg xmlns="http://www.w3.org/2000/svg" viewBox="0 0 96 96">
  <rect width="96" height="96" rx="20" fill="#f7f5ef"/>
  <g fill="none" stroke-linecap="round" stroke-linejoin="round">
    <path d="M35 30 C28 20 43 16 36 6" stroke="#1d5f55" stroke-width="4"/>
    <path d="M50 31 C42 19 58 17 51 7" stroke="#1d5f55" stroke-width="4"/>
    <path d="M65 30 C58 21 72 17 66 8" stroke="#1d5f55" stroke-width="4"/>
    <path d="M24 41 H64 V59 C64 70 56 77 44 77 H42 C31 77 24 70 24 59 Z" stroke="#201d19" stroke-width="5"/>
    <path d="M64 47 H70 C77 47 81 51 81 57 C81 64 76 68 68 68 H62" stroke="#201d19" stroke-width="4.5"/>
    <path d="M20 80 C27 85 61 85 70 80" stroke="#201d19" stroke-width="4.5"/>
  </g>
</svg>
